<svg xmlns="http://www.w3.org/2000/svg" width="1920" height="1080" viewBox="0 0 1920 1080">
  <defs>
    <linearGradient id="grid-gradient" x1="0%" y1="0%" x2="100%" y2="100%">
      <stop offset="0%" style="stop-color:#00ffff;stop-opacity:0.1"/>
      <stop offset="100%" style="stop-color:#ff00ff;stop-opacity:0.1"/>
    </linearGradient>
    <pattern id="grid" width="50" height="50" patternUnits="userSpaceOnUse">
      <path d="M 50 0 L 0 0 0 50" fill="none" stroke="url(#grid-gradient)" stroke-width="0.5"/>
    </pattern>
  </defs>
  
  <!-- Fondo oscuro base -->
  <rect width="100%" height="100%" fill="#0a0a0a"/>
  
  <!-- Patrón de cuadrícula -->
  <rect width="100%" height="100%" fill="url(#grid)"/>
  
  <!-- Círculos decorativos con efecto neón -->
  <circle cx="200" cy="300" r="100" fill="none" stroke="#00ffff" stroke-width="2" opacity="0.1"/>
  <circle cx="1720" cy="800" r="150" fill="none" stroke="#ff00ff" stroke-width="2" opacity="0.1"/>
  
  <!-- Líneas decorativas -->
  <line x1="0" y1="200" x2="500" y2="400" stroke="#00ffff" stroke-width="1" opacity="0.1"/>
  <line x1="1920" y1="600" x2="1420" y2="800" stroke="#ff00ff" stroke-width="1" opacity="0.1"/>
  
  <!-- Puntos brillantes -->
  <g fill="#00ffff" opacity="0.2">
    <circle cx="100" cy="100" r="2"/>
    <circle cx="500" cy="300" r="2"/>
    <circle cx="900" cy="200" r="2"/>
    <circle cx="1300" cy="400" r="2"/>
    <circle cx="1700" cy="100" r="2"/>
  </g>
  
  <g fill="#ff00ff" opacity="0.2">
    <circle cx="300" cy="600" r="2"/>
    <circle cx="700" cy="800" r="2"/>
    <circle cx="1100" cy="700" r="2"/>
    <circle cx="1500" cy="900" r="2"/>
    <circle cx="1900" cy="600" r="2"/>
  </g>
</svg>